<svg id="visual" viewBox="0 0 1350 625" width="1350" height="625" xmlns="http://www.w3.org/2000/svg" xmlns:xlink="http://www.w3.org/1999/xlink" version="1.1"><rect x="0" y="0" width="1350" height="625" fill="#FFFFFF"></rect><defs><linearGradient id="grad1_0" x1="53.7%" y1="0%" x2="100%" y2="100%"><stop offset="6.799999999999997%" stop-color="#ffffff" stop-opacity="1"></stop><stop offset="93.19999999999999%" stop-color="#ffffff" stop-opacity="1"></stop></linearGradient></defs><defs><linearGradient id="grad2_0" x1="0%" y1="0%" x2="46.3%" y2="100%"><stop offset="6.799999999999997%" stop-color="#ffffff" stop-opacity="1"></stop><stop offset="93.19999999999999%" stop-color="#ffffff" stop-opacity="1"></stop></linearGradient></defs><g transform="translate(1350, 0)"><path d="M0 343.8C-25.7 342.2 -51.4 340.6 -76.5 335.1C-101.6 329.6 -126 320.1 -145.4 301.8C-164.7 283.5 -178.8 256.4 -180.8 226.7C-182.8 197.1 -172.5 164.9 -188.4 150.3C-204.3 135.7 -246.3 138.7 -263.1 126.7C-279.9 114.7 -271.5 87.7 -280.8 64.1C-290 40.5 -316.9 20.2 -343.7 0L0 0Z" fill="#715DF2"></path></g><g transform="translate(0, 625)"><path d="M0 -343.7C24.4 -334.5 48.9 -325.2 72.8 -318.8C96.7 -312.4 120 -309 144.9 -300.9C169.8 -292.8 196.4 -280.1 201.4 -252.5C206.4 -224.9 189.9 -182.5 208 -165.8C226 -149.2 278.7 -158.3 305.4 -147.1C332.2 -135.9 333.1 -104.4 335.1 -76.5C337.2 -48.6 340.5 -24.3 343.8 0L0 0Z" fill="#715DF2"></path></g></svg>