<svg id="visual" viewBox="0 0 1350 625" width="1350" height="625" xmlns="http://www.w3.org/2000/svg" xmlns:xlink="http://www.w3.org/1999/xlink" version="1.1"><path d="M838 625L781.5 607.7C725 590.3 612 555.7 652.3 521C692.7 486.3 886.3 451.7 910 417C933.7 382.3 787.3 347.7 748 312.8C708.7 278 776.3 243 799.8 208.2C823.3 173.3 802.7 138.7 715.3 104C628 69.3 474 34.7 397 17.3L320 0L1350 0L1350 17.3C1350 34.7 1350 69.3 1350 104C1350 138.7 1350 173.3 1350 208.2C1350 243 1350 278 1350 312.8C1350 347.7 1350 382.3 1350 417C1350 451.7 1350 486.3 1350 521C1350 555.7 1350 590.3 1350 607.7L1350 625Z" fill="#0066FF" stroke-linecap="round" stroke-linejoin="miter"></path></svg>