<svg id="visual" viewBox="0 0 1350 625" width="1350" height="625" xmlns="http://www.w3.org/2000/svg" xmlns:xlink="http://www.w3.org/1999/xlink" version="1.1"><g transform="translate(-69.16456999416641 581.3570220733325)"><path d="M286.5 -269.6C417 -231.9 599.9 -185 685 -66.9C770 51.2 757.1 240.4 645 313.9C532.9 387.4 321.6 345.1 160.6 374.8C-0.3 404.6 -110.8 506.3 -251 526.1C-391.2 546 -561 484 -595.1 370.2C-629.1 256.3 -527.3 90.7 -478.9 -67.3C-430.6 -225.2 -435.8 -375.3 -364.9 -423.5C-294 -471.7 -147 -417.8 -34.5 -376.7C78 -335.6 156 -307.2 286.5 -269.6" fill="#FCAF3C"></path></g></svg>